<svg width="10" height="16" viewBox="0 0 10 16" fill="none" xmlns="http://www.w3.org/2000/svg">
<path fill-rule="evenodd" clip-rule="evenodd" d="M9 6H3V4C3 3.46957 3.21071 2.96086 3.58578 2.58578C3.96086 2.21071 4.46957 2 5 2C5.53043 2 6.03914 2.21071 6.41422 2.58578C6.78929 2.96086 7 3.46957 7 4V6H9V4C9 2.93913 8.57858 1.92172 7.82843 1.17157C7.07828 0.421424 6.06087 0 5 0C3.93913 0 2.92172 0.421424 2.17157 1.17157C1.42142 1.92172 1 2.93913 1 4V6H0V13L5 16L10 13V6H9ZM6 12V13H4V12C3.4564 11.461 3.10503 10.7583 3 10C3 9.46957 3.21071 8.96086 3.58578 8.58578C3.96086 8.21071 4.46957 8 5 8C5.53043 8 6.03914 8.21071 6.41422 8.58578C6.78929 8.96086 7 9.46957 7 10C6.89497 10.7583 6.5436 11.461 6 12Z" fill="#5B5A56"/>
</svg>
